# xmcd
#
# Track frame offsets: 
#        150
#        17589
#        31852
#        51452
#        68508
#        83528
#        105286
#        120710
#        138182
#        151798
#
# Disc length: 2233 seconds
#
# Revision: 3
# Processed by: cddbd v1.5.2PL0 Copyright (c) Steve Scherf et al.
# Submitted via: ExactAudioCopyFreeDBPlugin 1.0
#
DISCID=6a08b70a
DTITLE=Kenny Rogers - Love Collection
DYEAR=1998
DGENRE=Country
TTITLE0=Lady
TTITLE1=You Are So Beautiful
TTITLE2=She Believes In Me
TTITLE3=You Decorated My Life
TTITLE4=Crazy
TTITLE5=Have I Told You Lately That I Love You
TTITLE6=Unforgettable
TTITLE7=I Swear
TTITLE8=I Will Always Love You
TTITLE9=Through The Years
EXTD=
EXTT0=
EXTT1=
EXTT2=
EXTT3=
EXTT4=
EXTT5=
EXTT6=
EXTT7=
EXTT8=
EXTT9=
PLAYORDER=
